<svg id="Layer_1" data-name="Layer 1" xmlns="http://www.w3.org/2000/svg" viewBox="0 0 1280 1024"><defs><style>.cls-1{fill:#00ffdf;}.cls-2{fill:none;}</style></defs><title>blocks</title><path class="cls-1" d="M219.87,841V978H36.65V841H219.87m8-8H28.65V986H227.87V833Z"/><path class="cls-1" d="M841.9,703V887H598.68V703H841.9m6-6H592.68V893H847.9V697Z"/><path class="cls-1" d="M602.7,22V72H532.76V22H602.7m8-8H524.76V80H610.7V14Z"/><path class="cls-1" d="M1152.2,430v82H1040.59V430H1152.2m8-8H1032.59v98H1160.2V422Z"/><path class="cls-1" d="M314.7,145V363H26V145H314.7m8-8H18V371H322.7V137Z"/><path class="cls-1" d="M1262,754v248H934.24V754H1262m8-8H926.24v264H1270V746Z"/><path class="cls-1" d="M587,330v89H505.59V330H587m6-6H499.59V425H593V324Z"/><path class="cls-1" d="M488,572v89H406.59V572H488m6-6H400.59V667H494V566Z"/><path class="cls-1" d="M831,453v41H790.59V453H831m5-5H785.59v51H836V448Z"/><path class="cls-1" d="M716,570v43H673.59V570H716m4-4H669.59v51H720V566Z"/><path class="cls-1" d="M651,501v22H629V501h22m4-4H625v30h30V497Z"/><path class="cls-1" d="M906.48,235v82H825.59V235h80.89m7-7H818.59v96h94.89V228Z"/><rect class="cls-2" width="1280" height="1024"/></svg>